G75*
%MOIN*%
%OFA0B0*%
%FSLAX25Y25*%
%IPPOS*%
%LPD*%
%AMOC8*
5,1,8,0,0,1.08239X$1,22.5*
%
%ADD10C,0.00000*%
%ADD11C,0.00800*%
%ADD12C,0.00400*%
D10*
X0001000Y0001000D02*
X0001000Y0179701D01*
X0155921Y0179701D01*
X0155921Y0001000D01*
X0001000Y0001000D01*
D11*
X0103283Y0123992D02*
X0138717Y0123992D01*
X0138717Y0166906D01*
X0131236Y0166906D01*
X0111551Y0166906D02*
X0103283Y0166906D01*
X0103283Y0162575D01*
X0103283Y0144071D02*
X0103283Y0123992D01*
D12*
X0141200Y0122883D02*
X0145800Y0123906D01*
X0145800Y0125842D02*
X0145800Y0127887D01*
X0145800Y0129762D02*
X0145800Y0131040D01*
X0145800Y0129762D02*
X0141200Y0129762D01*
X0141200Y0127887D02*
X0141200Y0125842D01*
X0145800Y0125842D01*
X0143756Y0125842D02*
X0143756Y0127376D01*
X0143244Y0129762D02*
X0143244Y0131040D01*
X0143244Y0131296D02*
X0141200Y0132318D01*
X0143244Y0131040D02*
X0143246Y0131110D01*
X0143252Y0131181D01*
X0143261Y0131250D01*
X0143275Y0131319D01*
X0143292Y0131388D01*
X0143313Y0131455D01*
X0143338Y0131521D01*
X0143366Y0131585D01*
X0143398Y0131648D01*
X0143433Y0131709D01*
X0143472Y0131768D01*
X0143513Y0131825D01*
X0143558Y0131879D01*
X0143606Y0131931D01*
X0143656Y0131980D01*
X0143710Y0132027D01*
X0143765Y0132070D01*
X0143823Y0132110D01*
X0143883Y0132147D01*
X0143945Y0132180D01*
X0144009Y0132210D01*
X0144074Y0132237D01*
X0144140Y0132260D01*
X0144208Y0132279D01*
X0144277Y0132294D01*
X0144346Y0132306D01*
X0144416Y0132314D01*
X0144487Y0132318D01*
X0144557Y0132318D01*
X0144628Y0132314D01*
X0144698Y0132306D01*
X0144767Y0132294D01*
X0144836Y0132279D01*
X0144904Y0132260D01*
X0144970Y0132237D01*
X0145035Y0132210D01*
X0145099Y0132180D01*
X0145161Y0132147D01*
X0145221Y0132110D01*
X0145279Y0132070D01*
X0145334Y0132027D01*
X0145388Y0131980D01*
X0145438Y0131931D01*
X0145486Y0131879D01*
X0145531Y0131825D01*
X0145572Y0131768D01*
X0145611Y0131709D01*
X0145646Y0131648D01*
X0145678Y0131585D01*
X0145706Y0131521D01*
X0145731Y0131455D01*
X0145752Y0131388D01*
X0145769Y0131319D01*
X0145783Y0131250D01*
X0145792Y0131181D01*
X0145798Y0131110D01*
X0145800Y0131040D01*
X0144267Y0121861D02*
X0141200Y0122883D01*
X0141200Y0120839D02*
X0144267Y0121861D01*
X0145800Y0119817D02*
X0141200Y0120839D01*
X0142478Y0118039D02*
X0144522Y0118039D01*
X0144592Y0118037D01*
X0144663Y0118031D01*
X0144732Y0118022D01*
X0144801Y0118008D01*
X0144870Y0117991D01*
X0144937Y0117970D01*
X0145003Y0117945D01*
X0145067Y0117917D01*
X0145130Y0117885D01*
X0145191Y0117850D01*
X0145250Y0117811D01*
X0145307Y0117770D01*
X0145361Y0117725D01*
X0145413Y0117677D01*
X0145462Y0117627D01*
X0145509Y0117573D01*
X0145552Y0117518D01*
X0145592Y0117460D01*
X0145629Y0117400D01*
X0145662Y0117338D01*
X0145692Y0117274D01*
X0145719Y0117209D01*
X0145742Y0117143D01*
X0145761Y0117075D01*
X0145776Y0117006D01*
X0145788Y0116937D01*
X0145796Y0116867D01*
X0145800Y0116796D01*
X0145800Y0116726D01*
X0145796Y0116655D01*
X0145788Y0116585D01*
X0145776Y0116516D01*
X0145761Y0116447D01*
X0145742Y0116379D01*
X0145719Y0116313D01*
X0145692Y0116248D01*
X0145662Y0116184D01*
X0145629Y0116122D01*
X0145592Y0116062D01*
X0145552Y0116004D01*
X0145509Y0115949D01*
X0145462Y0115895D01*
X0145413Y0115845D01*
X0145361Y0115797D01*
X0145307Y0115752D01*
X0145250Y0115711D01*
X0145191Y0115672D01*
X0145130Y0115637D01*
X0145067Y0115605D01*
X0145003Y0115577D01*
X0144937Y0115552D01*
X0144870Y0115531D01*
X0144801Y0115514D01*
X0144732Y0115500D01*
X0144663Y0115491D01*
X0144592Y0115485D01*
X0144522Y0115483D01*
X0142478Y0115483D01*
X0142408Y0115485D01*
X0142337Y0115491D01*
X0142268Y0115500D01*
X0142199Y0115514D01*
X0142130Y0115531D01*
X0142063Y0115552D01*
X0141997Y0115577D01*
X0141933Y0115605D01*
X0141870Y0115637D01*
X0141809Y0115672D01*
X0141750Y0115711D01*
X0141693Y0115752D01*
X0141639Y0115797D01*
X0141587Y0115845D01*
X0141538Y0115895D01*
X0141491Y0115949D01*
X0141448Y0116004D01*
X0141408Y0116062D01*
X0141371Y0116122D01*
X0141338Y0116184D01*
X0141308Y0116248D01*
X0141281Y0116313D01*
X0141258Y0116379D01*
X0141239Y0116447D01*
X0141224Y0116516D01*
X0141212Y0116585D01*
X0141204Y0116655D01*
X0141200Y0116726D01*
X0141200Y0116796D01*
X0141204Y0116867D01*
X0141212Y0116937D01*
X0141224Y0117006D01*
X0141239Y0117075D01*
X0141258Y0117143D01*
X0141281Y0117209D01*
X0141308Y0117274D01*
X0141338Y0117338D01*
X0141371Y0117400D01*
X0141408Y0117460D01*
X0141448Y0117518D01*
X0141491Y0117573D01*
X0141538Y0117627D01*
X0141587Y0117677D01*
X0141639Y0117725D01*
X0141693Y0117770D01*
X0141750Y0117811D01*
X0141809Y0117850D01*
X0141870Y0117885D01*
X0141933Y0117917D01*
X0141997Y0117945D01*
X0142063Y0117970D01*
X0142130Y0117991D01*
X0142199Y0118008D01*
X0142268Y0118022D01*
X0142337Y0118031D01*
X0142408Y0118037D01*
X0142478Y0118039D01*
X0143244Y0112478D02*
X0143244Y0111200D01*
X0143244Y0112478D02*
X0143246Y0112548D01*
X0143252Y0112619D01*
X0143261Y0112688D01*
X0143275Y0112757D01*
X0143292Y0112826D01*
X0143313Y0112893D01*
X0143338Y0112959D01*
X0143366Y0113023D01*
X0143398Y0113086D01*
X0143433Y0113147D01*
X0143472Y0113206D01*
X0143513Y0113263D01*
X0143558Y0113317D01*
X0143606Y0113369D01*
X0143656Y0113418D01*
X0143710Y0113465D01*
X0143765Y0113508D01*
X0143823Y0113548D01*
X0143883Y0113585D01*
X0143945Y0113618D01*
X0144009Y0113648D01*
X0144074Y0113675D01*
X0144140Y0113698D01*
X0144208Y0113717D01*
X0144277Y0113732D01*
X0144346Y0113744D01*
X0144416Y0113752D01*
X0144487Y0113756D01*
X0144557Y0113756D01*
X0144628Y0113752D01*
X0144698Y0113744D01*
X0144767Y0113732D01*
X0144836Y0113717D01*
X0144904Y0113698D01*
X0144970Y0113675D01*
X0145035Y0113648D01*
X0145099Y0113618D01*
X0145161Y0113585D01*
X0145221Y0113548D01*
X0145279Y0113508D01*
X0145334Y0113465D01*
X0145388Y0113418D01*
X0145438Y0113369D01*
X0145486Y0113317D01*
X0145531Y0113263D01*
X0145572Y0113206D01*
X0145611Y0113147D01*
X0145646Y0113086D01*
X0145678Y0113023D01*
X0145706Y0112959D01*
X0145731Y0112893D01*
X0145752Y0112826D01*
X0145769Y0112757D01*
X0145783Y0112688D01*
X0145792Y0112619D01*
X0145798Y0112548D01*
X0145800Y0112478D01*
X0145800Y0111200D01*
X0141200Y0111200D01*
M02*
