%
M48
M72
T01C0.03200
T02C0.03543
T03C0.04000
T04C0.04331
T05C0.11024
T06C0.12598
%
T01
X26000Y36000
X46000Y36000
X66000Y36000
X76000Y36000
X76000Y61000
X66000Y61000
X61000Y86000
X46000Y86000
X26000Y86000
X21000Y101000
X21000Y111000
X21000Y131000
X21000Y141000
X41000Y141000
X41000Y131000
X41000Y121000
X41000Y111000
X71000Y111000
X71000Y121000
X71000Y131000
X71000Y141000
X81000Y86000
X41000Y61000
X31000Y61000
T02
X111000Y19750
X121000Y19750
X131000Y19750
T03
X61000Y161000
X51000Y161000
T04
X121000Y91000
X121000Y71000
T05
X121000Y139937
X102102Y153323
T06
X121000Y164543
M30
