G75*
%MOIN*%
%OFA0B0*%
%FSLAX25Y25*%
%IPPOS*%
%LPD*%
%AMOC8*
5,1,8,0,0,1.08239X$1,22.5*
%
%ADD10C,0.00600*%
%ADD11OC8,0.05600*%
%ADD12C,0.05200*%
%ADD13C,0.07400*%
%ADD14OC8,0.06600*%
%ADD15R,0.06496X0.06496*%
%ADD16C,0.06496*%
%ADD17C,0.07000*%
%ADD18C,0.16598*%
%ADD19C,0.15024*%
%ADD20C,0.01200*%
D10*
X0016300Y0012367D02*
X0016300Y0014500D01*
X0016302Y0014564D01*
X0016308Y0014629D01*
X0016317Y0014692D01*
X0016331Y0014755D01*
X0016348Y0014817D01*
X0016369Y0014878D01*
X0016394Y0014938D01*
X0016422Y0014996D01*
X0016454Y0015052D01*
X0016489Y0015106D01*
X0016527Y0015158D01*
X0016568Y0015208D01*
X0016613Y0015254D01*
X0016659Y0015299D01*
X0016709Y0015340D01*
X0016761Y0015378D01*
X0016815Y0015413D01*
X0016871Y0015445D01*
X0016929Y0015473D01*
X0016989Y0015498D01*
X0017050Y0015519D01*
X0017112Y0015536D01*
X0017175Y0015550D01*
X0017238Y0015559D01*
X0017303Y0015565D01*
X0017367Y0015567D01*
X0019144Y0015567D01*
X0019144Y0017700D02*
X0019144Y0011300D01*
X0017367Y0011300D01*
X0017303Y0011302D01*
X0017238Y0011308D01*
X0017175Y0011317D01*
X0017112Y0011331D01*
X0017050Y0011348D01*
X0016989Y0011369D01*
X0016929Y0011394D01*
X0016871Y0011422D01*
X0016815Y0011454D01*
X0016761Y0011489D01*
X0016709Y0011527D01*
X0016659Y0011568D01*
X0016613Y0011613D01*
X0016568Y0011659D01*
X0016527Y0011709D01*
X0016489Y0011761D01*
X0016454Y0011815D01*
X0016422Y0011871D01*
X0016394Y0011929D01*
X0016369Y0011989D01*
X0016348Y0012050D01*
X0016331Y0012112D01*
X0016317Y0012175D01*
X0016308Y0012238D01*
X0016302Y0012303D01*
X0016300Y0012367D01*
X0021867Y0012367D02*
X0021867Y0014144D01*
X0021867Y0013433D02*
X0024712Y0013433D01*
X0024712Y0014144D01*
X0024710Y0014218D01*
X0024704Y0014293D01*
X0024694Y0014366D01*
X0024681Y0014440D01*
X0024664Y0014512D01*
X0024642Y0014583D01*
X0024618Y0014654D01*
X0024589Y0014722D01*
X0024557Y0014790D01*
X0024521Y0014855D01*
X0024483Y0014918D01*
X0024440Y0014980D01*
X0024395Y0015039D01*
X0024347Y0015096D01*
X0024296Y0015150D01*
X0024242Y0015201D01*
X0024185Y0015249D01*
X0024126Y0015294D01*
X0024064Y0015337D01*
X0024001Y0015375D01*
X0023936Y0015411D01*
X0023868Y0015443D01*
X0023800Y0015472D01*
X0023729Y0015496D01*
X0023658Y0015518D01*
X0023586Y0015535D01*
X0023512Y0015548D01*
X0023439Y0015558D01*
X0023364Y0015564D01*
X0023290Y0015566D01*
X0023216Y0015564D01*
X0023141Y0015558D01*
X0023068Y0015548D01*
X0022994Y0015535D01*
X0022922Y0015518D01*
X0022851Y0015496D01*
X0022780Y0015472D01*
X0022712Y0015443D01*
X0022644Y0015411D01*
X0022579Y0015375D01*
X0022516Y0015337D01*
X0022454Y0015294D01*
X0022395Y0015249D01*
X0022338Y0015201D01*
X0022284Y0015150D01*
X0022233Y0015096D01*
X0022185Y0015039D01*
X0022140Y0014980D01*
X0022097Y0014918D01*
X0022059Y0014855D01*
X0022023Y0014790D01*
X0021991Y0014722D01*
X0021962Y0014654D01*
X0021938Y0014583D01*
X0021916Y0014512D01*
X0021899Y0014440D01*
X0021886Y0014366D01*
X0021876Y0014293D01*
X0021870Y0014218D01*
X0021868Y0014144D01*
X0021867Y0012367D02*
X0021869Y0012303D01*
X0021875Y0012238D01*
X0021884Y0012175D01*
X0021898Y0012112D01*
X0021915Y0012050D01*
X0021936Y0011989D01*
X0021961Y0011929D01*
X0021989Y0011871D01*
X0022021Y0011815D01*
X0022056Y0011761D01*
X0022094Y0011709D01*
X0022135Y0011659D01*
X0022180Y0011613D01*
X0022226Y0011568D01*
X0022276Y0011527D01*
X0022328Y0011489D01*
X0022382Y0011454D01*
X0022438Y0011422D01*
X0022496Y0011394D01*
X0022556Y0011369D01*
X0022617Y0011348D01*
X0022679Y0011331D01*
X0022742Y0011317D01*
X0022805Y0011308D01*
X0022870Y0011302D01*
X0022934Y0011300D01*
X0024712Y0011300D01*
X0028418Y0011300D02*
X0026996Y0015567D01*
X0029840Y0015567D02*
X0028418Y0011300D01*
X0032451Y0015567D02*
X0033873Y0015567D01*
X0033937Y0015565D01*
X0034002Y0015559D01*
X0034065Y0015550D01*
X0034128Y0015536D01*
X0034190Y0015519D01*
X0034251Y0015498D01*
X0034311Y0015473D01*
X0034369Y0015445D01*
X0034425Y0015413D01*
X0034479Y0015378D01*
X0034531Y0015340D01*
X0034581Y0015299D01*
X0034627Y0015254D01*
X0034672Y0015208D01*
X0034713Y0015158D01*
X0034751Y0015106D01*
X0034786Y0015052D01*
X0034818Y0014996D01*
X0034846Y0014938D01*
X0034871Y0014878D01*
X0034892Y0014817D01*
X0034909Y0014755D01*
X0034923Y0014692D01*
X0034932Y0014629D01*
X0034938Y0014564D01*
X0034940Y0014500D01*
X0034940Y0011300D01*
X0033340Y0011300D01*
X0033270Y0011302D01*
X0033201Y0011308D01*
X0033132Y0011318D01*
X0033063Y0011331D01*
X0032996Y0011349D01*
X0032929Y0011370D01*
X0032864Y0011395D01*
X0032800Y0011423D01*
X0032738Y0011455D01*
X0032678Y0011491D01*
X0032620Y0011529D01*
X0032564Y0011571D01*
X0032511Y0011616D01*
X0032460Y0011664D01*
X0032412Y0011715D01*
X0032367Y0011768D01*
X0032325Y0011824D01*
X0032287Y0011882D01*
X0032251Y0011942D01*
X0032219Y0012004D01*
X0032191Y0012068D01*
X0032166Y0012133D01*
X0032145Y0012200D01*
X0032127Y0012267D01*
X0032114Y0012336D01*
X0032104Y0012405D01*
X0032098Y0012474D01*
X0032096Y0012544D01*
X0032098Y0012614D01*
X0032104Y0012683D01*
X0032114Y0012752D01*
X0032127Y0012821D01*
X0032145Y0012888D01*
X0032166Y0012955D01*
X0032191Y0013020D01*
X0032219Y0013084D01*
X0032251Y0013146D01*
X0032287Y0013206D01*
X0032325Y0013264D01*
X0032367Y0013320D01*
X0032412Y0013373D01*
X0032460Y0013424D01*
X0032511Y0013472D01*
X0032564Y0013517D01*
X0032620Y0013559D01*
X0032678Y0013597D01*
X0032738Y0013633D01*
X0032800Y0013665D01*
X0032864Y0013693D01*
X0032929Y0013718D01*
X0032996Y0013739D01*
X0033063Y0013757D01*
X0033132Y0013770D01*
X0033201Y0013780D01*
X0033270Y0013786D01*
X0033340Y0013788D01*
X0033340Y0013789D02*
X0034940Y0013789D01*
X0026000Y0036000D02*
X0026400Y0036200D01*
X0040200Y0036200D01*
X0044400Y0040400D01*
X0061800Y0040400D01*
X0066000Y0036200D01*
X0066000Y0036000D01*
X0076000Y0036000D02*
X0076200Y0035600D01*
X0095400Y0035600D01*
X0111000Y0020000D01*
X0111000Y0019750D01*
X0111000Y0061400D02*
X0076200Y0061400D01*
X0076000Y0061000D01*
X0066000Y0061000D02*
X0066000Y0060800D01*
X0046200Y0060800D01*
X0042600Y0057200D01*
X0034800Y0057200D01*
X0031000Y0061000D01*
X0041000Y0061000D02*
X0041400Y0061400D01*
X0041400Y0066800D01*
X0060600Y0086000D01*
X0061000Y0086000D01*
X0046000Y0086000D02*
X0045600Y0086000D01*
X0041400Y0090200D01*
X0041400Y0110600D01*
X0041000Y0111000D01*
X0042600Y0114800D02*
X0024600Y0114800D01*
X0021000Y0111200D01*
X0021000Y0111000D01*
X0021000Y0101000D02*
X0021000Y0090800D01*
X0025800Y0086000D01*
X0026000Y0086000D01*
X0046200Y0111200D02*
X0042600Y0114800D01*
X0046200Y0111200D02*
X0070800Y0111200D01*
X0071000Y0111000D01*
X0071400Y0120800D02*
X0071000Y0121000D01*
X0071400Y0121400D01*
X0071400Y0126200D01*
X0075000Y0129800D01*
X0075000Y0141000D01*
X0071000Y0141000D02*
X0051000Y0161000D01*
X0036956Y0133059D02*
X0036600Y0132800D01*
X0034800Y0131000D01*
X0021000Y0131000D01*
X0071400Y0120800D02*
X0085800Y0106400D01*
X0085800Y0090800D01*
X0081000Y0086000D01*
X0085800Y0090800D02*
X0120600Y0090800D01*
X0121000Y0091000D01*
X0121000Y0071000D02*
X0120600Y0071000D01*
X0111000Y0061400D01*
D11*
X0076000Y0061000D03*
X0066000Y0061000D03*
X0041000Y0061000D03*
X0031000Y0061000D03*
X0021000Y0101000D03*
X0021000Y0111000D03*
X0021000Y0131000D03*
X0021000Y0141000D03*
D12*
X0041000Y0141000D03*
X0041000Y0131000D03*
X0041000Y0121000D03*
X0041000Y0111000D03*
X0071000Y0111000D03*
X0071000Y0121000D03*
X0071000Y0131000D03*
X0071000Y0141000D03*
D13*
X0061000Y0161000D03*
X0051000Y0161000D03*
D14*
X0046000Y0086000D03*
X0061000Y0086000D03*
X0081000Y0086000D03*
X0076000Y0036000D03*
X0066000Y0036000D03*
X0046000Y0036000D03*
X0026000Y0036000D03*
X0026000Y0086000D03*
D15*
X0121000Y0071000D03*
D16*
X0121000Y0091000D03*
D17*
X0121000Y0019750D03*
X0131000Y0019750D03*
X0111000Y0019750D03*
D18*
X0121000Y0164543D03*
D19*
X0102102Y0153323D03*
X0121000Y0139937D03*
D20*
X0112102Y0139937D01*
X0111860Y0139940D01*
X0111619Y0139949D01*
X0111378Y0139963D01*
X0111137Y0139984D01*
X0110897Y0140010D01*
X0110657Y0140042D01*
X0110418Y0140080D01*
X0110181Y0140123D01*
X0109944Y0140173D01*
X0109709Y0140228D01*
X0109475Y0140288D01*
X0109243Y0140355D01*
X0109012Y0140426D01*
X0108783Y0140504D01*
X0108556Y0140587D01*
X0108331Y0140675D01*
X0108108Y0140769D01*
X0107888Y0140868D01*
X0107670Y0140973D01*
X0107455Y0141082D01*
X0107242Y0141197D01*
X0107032Y0141317D01*
X0106826Y0141442D01*
X0106622Y0141572D01*
X0106421Y0141707D01*
X0106224Y0141847D01*
X0106030Y0141991D01*
X0105840Y0142140D01*
X0105654Y0142294D01*
X0105471Y0142452D01*
X0105292Y0142614D01*
X0105117Y0142781D01*
X0104946Y0142952D01*
X0104779Y0143127D01*
X0104617Y0143306D01*
X0104459Y0143489D01*
X0104305Y0143675D01*
X0104156Y0143865D01*
X0104012Y0144059D01*
X0103872Y0144256D01*
X0103737Y0144457D01*
X0103607Y0144661D01*
X0103482Y0144867D01*
X0103362Y0145077D01*
X0103247Y0145290D01*
X0103138Y0145505D01*
X0103033Y0145723D01*
X0102934Y0145943D01*
X0102840Y0146166D01*
X0102752Y0146391D01*
X0102669Y0146618D01*
X0102591Y0146847D01*
X0102520Y0147078D01*
X0102453Y0147310D01*
X0102393Y0147544D01*
X0102338Y0147779D01*
X0102288Y0148016D01*
X0102245Y0148253D01*
X0102207Y0148492D01*
X0102175Y0148732D01*
X0102149Y0148972D01*
X0102128Y0149213D01*
X0102114Y0149454D01*
X0102105Y0149695D01*
X0102102Y0149937D01*
X0102102Y0153323D01*
X0102102Y0151000D01*
X0102099Y0150758D01*
X0102090Y0150517D01*
X0102076Y0150276D01*
X0102055Y0150035D01*
X0102029Y0149795D01*
X0101997Y0149555D01*
X0101959Y0149316D01*
X0101916Y0149079D01*
X0101866Y0148842D01*
X0101811Y0148607D01*
X0101751Y0148373D01*
X0101684Y0148141D01*
X0101613Y0147910D01*
X0101535Y0147681D01*
X0101452Y0147454D01*
X0101364Y0147229D01*
X0101270Y0147006D01*
X0101171Y0146786D01*
X0101066Y0146568D01*
X0100957Y0146353D01*
X0100842Y0146140D01*
X0100722Y0145930D01*
X0100597Y0145724D01*
X0100467Y0145520D01*
X0100332Y0145319D01*
X0100192Y0145122D01*
X0100048Y0144928D01*
X0099899Y0144738D01*
X0099745Y0144552D01*
X0099587Y0144369D01*
X0099425Y0144190D01*
X0099258Y0144015D01*
X0099087Y0143844D01*
X0098912Y0143677D01*
X0098733Y0143515D01*
X0098550Y0143357D01*
X0098364Y0143203D01*
X0098174Y0143054D01*
X0097980Y0142910D01*
X0097783Y0142770D01*
X0097582Y0142635D01*
X0097378Y0142505D01*
X0097172Y0142380D01*
X0096962Y0142260D01*
X0096749Y0142145D01*
X0096534Y0142036D01*
X0096316Y0141931D01*
X0096096Y0141832D01*
X0095873Y0141738D01*
X0095648Y0141650D01*
X0095421Y0141567D01*
X0095192Y0141489D01*
X0094961Y0141418D01*
X0094729Y0141351D01*
X0094495Y0141291D01*
X0094260Y0141236D01*
X0094023Y0141186D01*
X0093786Y0141143D01*
X0093547Y0141105D01*
X0093307Y0141073D01*
X0093067Y0141047D01*
X0092826Y0141026D01*
X0092585Y0141012D01*
X0092344Y0141003D01*
X0092102Y0141000D01*
X0075000Y0141000D01*
X0071000Y0141000D01*
X0041000Y0131000D02*
X0040861Y0131002D01*
X0040723Y0131008D01*
X0040585Y0131017D01*
X0040447Y0131031D01*
X0040310Y0131048D01*
X0040173Y0131069D01*
X0040036Y0131094D01*
X0039901Y0131122D01*
X0039766Y0131155D01*
X0039632Y0131191D01*
X0039500Y0131230D01*
X0039368Y0131274D01*
X0039238Y0131321D01*
X0039109Y0131371D01*
X0038981Y0131426D01*
X0038855Y0131483D01*
X0038731Y0131544D01*
X0038609Y0131609D01*
X0038488Y0131677D01*
X0038369Y0131748D01*
X0038252Y0131823D01*
X0038138Y0131900D01*
X0038025Y0131981D01*
X0037915Y0132065D01*
X0037807Y0132152D01*
X0037702Y0132242D01*
X0037599Y0132335D01*
X0037499Y0132431D01*
X0037401Y0132529D01*
X0037306Y0132630D01*
X0037214Y0132734D01*
X0037125Y0132840D01*
X0037039Y0132948D01*
X0036956Y0133059D01*
X0036000Y0136000D02*
X0036000Y0166000D01*
X0036002Y0166140D01*
X0036008Y0166280D01*
X0036018Y0166420D01*
X0036031Y0166560D01*
X0036049Y0166699D01*
X0036071Y0166838D01*
X0036096Y0166975D01*
X0036125Y0167113D01*
X0036158Y0167249D01*
X0036195Y0167384D01*
X0036236Y0167518D01*
X0036281Y0167651D01*
X0036329Y0167783D01*
X0036381Y0167913D01*
X0036436Y0168042D01*
X0036495Y0168169D01*
X0036558Y0168295D01*
X0036624Y0168419D01*
X0036693Y0168540D01*
X0036766Y0168660D01*
X0036843Y0168778D01*
X0036922Y0168893D01*
X0037005Y0169007D01*
X0037091Y0169117D01*
X0037180Y0169226D01*
X0037272Y0169332D01*
X0037367Y0169435D01*
X0037464Y0169536D01*
X0037565Y0169633D01*
X0037668Y0169728D01*
X0037774Y0169820D01*
X0037883Y0169909D01*
X0037993Y0169995D01*
X0038107Y0170078D01*
X0038222Y0170157D01*
X0038340Y0170234D01*
X0038460Y0170307D01*
X0038581Y0170376D01*
X0038705Y0170442D01*
X0038831Y0170505D01*
X0038958Y0170564D01*
X0039087Y0170619D01*
X0039217Y0170671D01*
X0039349Y0170719D01*
X0039482Y0170764D01*
X0039616Y0170805D01*
X0039751Y0170842D01*
X0039887Y0170875D01*
X0040025Y0170904D01*
X0040162Y0170929D01*
X0040301Y0170951D01*
X0040440Y0170969D01*
X0040580Y0170982D01*
X0040720Y0170992D01*
X0040860Y0170998D01*
X0041000Y0171000D01*
X0114543Y0171000D01*
X0114701Y0170998D01*
X0114860Y0170992D01*
X0115018Y0170983D01*
X0115176Y0170969D01*
X0115333Y0170951D01*
X0115490Y0170930D01*
X0115647Y0170905D01*
X0115803Y0170876D01*
X0115958Y0170843D01*
X0116112Y0170806D01*
X0116265Y0170766D01*
X0116417Y0170722D01*
X0116568Y0170674D01*
X0116718Y0170623D01*
X0116867Y0170567D01*
X0117014Y0170508D01*
X0117160Y0170446D01*
X0117304Y0170380D01*
X0117446Y0170311D01*
X0117587Y0170238D01*
X0117726Y0170161D01*
X0117863Y0170081D01*
X0117997Y0169998D01*
X0118130Y0169912D01*
X0118261Y0169822D01*
X0118389Y0169729D01*
X0118516Y0169633D01*
X0118639Y0169534D01*
X0118761Y0169432D01*
X0118879Y0169327D01*
X0118995Y0169219D01*
X0119109Y0169109D01*
X0119219Y0168995D01*
X0119327Y0168879D01*
X0119432Y0168761D01*
X0119534Y0168639D01*
X0119633Y0168516D01*
X0119729Y0168389D01*
X0119822Y0168261D01*
X0119912Y0168130D01*
X0119998Y0167997D01*
X0120081Y0167863D01*
X0120161Y0167726D01*
X0120238Y0167587D01*
X0120311Y0167446D01*
X0120380Y0167304D01*
X0120446Y0167160D01*
X0120508Y0167014D01*
X0120567Y0166867D01*
X0120623Y0166718D01*
X0120674Y0166568D01*
X0120722Y0166417D01*
X0120766Y0166265D01*
X0120806Y0166112D01*
X0120843Y0165958D01*
X0120876Y0165803D01*
X0120905Y0165647D01*
X0120930Y0165490D01*
X0120951Y0165333D01*
X0120969Y0165176D01*
X0120983Y0165018D01*
X0120992Y0164860D01*
X0120998Y0164701D01*
X0121000Y0164543D01*
X0036000Y0136000D02*
X0036002Y0135863D01*
X0036007Y0135727D01*
X0036017Y0135590D01*
X0036030Y0135454D01*
X0036047Y0135319D01*
X0036067Y0135183D01*
X0036091Y0135049D01*
X0036119Y0134915D01*
X0036151Y0134782D01*
X0036186Y0134650D01*
X0036224Y0134519D01*
X0036267Y0134389D01*
X0036312Y0134260D01*
X0036362Y0134133D01*
X0036415Y0134007D01*
X0036471Y0133882D01*
X0036530Y0133759D01*
X0036593Y0133638D01*
X0036660Y0133518D01*
X0036729Y0133400D01*
X0036802Y0133285D01*
X0036877Y0133171D01*
X0036956Y0133059D01*
M02*
