G75*
%MOIN*%
%OFA0B0*%
%FSLAX25Y25*%
%IPPOS*%
%LPD*%
%AMOC8*
5,1,8,0,0,1.08239X$1,22.5*
%
%ADD10OC8,0.05600*%
%ADD11C,0.05200*%
%ADD12C,0.07400*%
%ADD13OC8,0.06600*%
%ADD14R,0.06496X0.06496*%
%ADD15C,0.06496*%
%ADD16C,0.07000*%
%ADD17C,0.16598*%
%ADD18C,0.15024*%
%ADD19C,0.00600*%
D10*
X0031000Y0061000D03*
X0041000Y0061000D03*
X0066000Y0061000D03*
X0076000Y0061000D03*
X0021000Y0101000D03*
X0021000Y0111000D03*
X0021000Y0131000D03*
X0021000Y0141000D03*
D11*
X0041000Y0141000D03*
X0041000Y0131000D03*
X0041000Y0121000D03*
X0041000Y0111000D03*
X0071000Y0111000D03*
X0071000Y0121000D03*
X0071000Y0131000D03*
X0071000Y0141000D03*
D12*
X0061000Y0161000D03*
X0051000Y0161000D03*
D13*
X0026000Y0036000D03*
X0046000Y0036000D03*
X0066000Y0036000D03*
X0076000Y0036000D03*
X0081000Y0086000D03*
X0061000Y0086000D03*
X0046000Y0086000D03*
X0026000Y0086000D03*
D14*
X0121000Y0071000D03*
D15*
X0121000Y0091000D03*
D16*
X0121000Y0019750D03*
X0131000Y0019750D03*
X0111000Y0019750D03*
D17*
X0121000Y0164543D03*
D18*
X0102102Y0153323D03*
X0121000Y0139937D03*
D19*
X0081000Y0086000D02*
X0081000Y0060200D01*
X0076200Y0055400D01*
X0076200Y0036200D01*
X0076000Y0036000D01*
X0046000Y0036000D02*
X0045600Y0036200D01*
X0045600Y0080000D01*
X0037200Y0088400D01*
X0037200Y0127400D01*
X0040800Y0131000D01*
X0041000Y0131000D01*
X0040800Y0135800D02*
X0031200Y0126200D01*
X0031200Y0061400D01*
X0031000Y0061000D01*
X0071000Y0131000D02*
X0131000Y0071000D01*
X0131000Y0019750D01*
X0040800Y0135800D02*
X0040800Y0140600D01*
X0041000Y0141000D01*
X0031200Y0141200D02*
X0051000Y0161000D01*
X0031200Y0141200D02*
X0021000Y0141200D01*
X0021000Y0141000D01*
M02*
